<?xml version="1.0" encoding="UTF-8" standalone="no"?>
<!-- Created with Inkscape (http://www.inkscape.org/) -->

<svg
   viewBox="0 0 579.46723 237.93355"
   version="1.1"
   id="svg1"
   xmlnsXlink="http://www.w3.org/1999/xlink"
   xmlns="http://www.w3.org/2000/svg"
   xmlnsSvg="http://www.w3.org/2000/svg">
  <defs
     id="defs1">
    <linearGradient
       id="linearGradient2">
      <stop
         style="stop-color:#00fd6c;stop-opacity:1;"
         offset="0"
         id="stop2" />
      <stop
         style="stop-color:#0062fd;stop-opacity:1;"
         offset="1"
         id="stop3" />
    </linearGradient>
    <linearGradient
       xlink:href="#linearGradient2"
       id="linearGradient3"
       x1="442.38794"
       y1="489.52029"
       x2="172.12784"
       y2="633.22015"
       gradientUnits="userSpaceOnUse" />
  </defs>
  <g
     id="layer1"
     transform="translate(-154.2135,-442.40341)">
    <path
       style="font-weight:bold;font-size:192px;font-family:Inter;-inkscape-font-specification:'Inter Bold';fill:#ffffff;stroke:#000000;stroke-width:0;stroke-linecap:round;stroke-linejoin:round;paint-order:fill markers stroke"
       d="m 474.08701,630.58795 v -139.6875 h 55.125 q 15.75,0 27.1875,5.625 11.4375,5.53125 17.625,15.84375 6.28125,10.21875 6.28125,24.375 0,14.0625 -6.28125,24.375 -6.28125,10.21875 -17.90625,15.84375 -11.53125,5.625 -27.28125,5.625 h -38.71875 v -24.1875 h 37.21875 q 7.6875,0 13.21875,-2.625 5.53125,-2.71875 8.53125,-7.59375 3,-4.875 3,-11.4375 0,-6.75 -3,-11.53125 -3,-4.78125 -8.53125,-7.40625 -5.53125,-2.71875 -13.21875,-2.71875 h -24.375 v 115.5 z m 120.5625,0 v -99 h 27.65625 v 99 z M 608.43076,519.1192 q -6.84375,0 -11.34375,-4.125 -4.5,-4.21875 -4.5,-10.59375 0,-6.375 4.5,-10.5 4.5,-4.21875 11.25,-4.21875 6.84375,0 11.34375,4.21875 4.5,4.125 4.5,10.5 0,6.375 -4.5,10.59375 -4.5,4.125 -11.25,4.125 z m 78.75,113.71875 q -14.8125,0 -26.0625,-6.46875 -11.15625,-6.5625 -17.4375,-18.1875 -6.1875,-11.71875 -6.1875,-27 0,-15.375 6.1875,-27 6.28125,-11.71875 17.4375,-18.28125 11.25,-6.5625 26.0625,-6.5625 9.75,0 18,2.90625 8.25,2.8125 14.34375,8.0625 6.1875,5.25 9.84375,12.46875 3.65625,7.125 4.3125,15.84375 h -26.71875 q -0.5625,-3.84375 -2.15625,-6.9375 -1.5,-3.09375 -3.9375,-5.34375 -2.4375,-2.25 -5.8125,-3.46875 -3.28125,-1.21875 -7.5,-1.21875 -6.9375,0 -11.90625,3.65625 -4.96875,3.5625 -7.6875,10.21875 -2.625,6.5625 -2.625,15.65625 0,9 2.625,15.5625 2.71875,6.5625 7.6875,10.21875 4.96875,3.5625 11.90625,3.5625 4.21875,0 7.5,-1.21875 3.28125,-1.21875 5.625,-3.46875 2.4375,-2.25 3.9375,-5.34375 1.5,-3.1875 2.15625,-7.125 h 26.90625 q -0.46875,8.625 -4.125,15.84375 -3.5625,7.125 -9.75,12.46875 -6.1875,5.34375 -14.53125,8.25 -8.25,2.90625 -18.09375,2.90625 z"
       id="text1"
       aria-label="Pic" />
    <path
       style="font-weight:bold;font-size:192px;font-family:HolidayFree;-inkscape-font-specification:'HolidayFree Bold';fill:url(#linearGradient3);stroke:#000000;stroke-width:0;stroke-linecap:round;stroke-linejoin:round;paint-order:fill markers stroke"
       d="m 277.48326,598.47035 c -18.30564,19.75083 -39.01991,37.25359 -61.82167,51.54483 -10.59801,6.58361 -22.80177,14.93355 -35.64783,15.897 -7.70764,0.64231 -9.9557,-2.08748 -10.598,-9.63454 -0.6423,-7.70764 -0.16058,-15.41528 0.80288,-22.96234 3.69324,-27.77961 14.93355,-55.23807 28.58249,-79.64559 13.00664,-23.44406 30.34882,-48.65446 52.82943,-64.06974 3.37209,-2.24806 6.90476,-4.33554 10.75858,-5.9413 1.28461,-0.48173 3.37209,-1.60576 4.81727,-1.60576 2.72979,-0.32115 2.40864,-0.16057 3.05094,2.56921 1.60576,6.58361 0.16058,14.29125 -0.80288,20.87486 -2.89036,16.5393 -8.51051,32.27573 -16.37873,47.0487 -2.89036,5.62015 10.59801,17.34218 14.29125,10.43743 8.67109,-16.69989 14.45182,-34.36322 17.02103,-52.99001 1.92691,-13.48837 1.44518,-27.94019 -9.9557,-37.25358 -13.64894,-11.07973 -29.54594,-0.96346 -40.94682,8.18936 -13.64894,10.91915 -24.72867,25.2104 -34.68437,39.34107 -20.5537,29.70652 -36.77186,64.55146 -42.55258,100.52044 -2.40864,15.2547 -4.6567,34.84494 5.62015,48.01216 8.83167,11.40088 22.64118,13.64894 35.96897,9.79512 16.69989,-4.81727 32.75746,-16.53931 46.72756,-26.65558 16.5393,-12.04318 31.794,-25.69213 45.60352,-40.62567 4.81727,-5.13843 -8.02879,-17.82392 -12.68549,-12.84607 z m 40.94679,-7.86821 c -0.16058,-1.12403 -0.48173,-2.08748 -0.80288,-3.05094 3.85382,-4.49612 -6.26246,-15.897 -11.72204,-13.16721 -17.50276,8.67109 -48.49388,39.01991 -29.70652,59.73419 9.9557,11.07973 22.80177,6.42303 30.99113,-4.0144 8.83167,-11.2403 12.68549,-25.37097 11.24031,-39.50164 z m -18.78737,18.14506 c -1.92691,4.17497 -4.49612,8.02879 -7.70764,11.40089 -1.92691,2.24806 -3.85382,3.21151 -5.9413,4.97784 0.16057,-1.44518 0.32115,-2.89036 0.48173,-3.37209 0.6423,-1.92691 1.44518,-3.85382 2.40863,-5.62015 1.92691,-4.01439 4.17497,-7.70764 6.90476,-11.07973 2.40864,-2.89036 4.81727,-5.45958 7.54706,-7.86821 -0.6423,4.01439 -1.92691,7.86821 -3.69324,11.56145 z m 69.52931,-18.14506 c -0.16057,-1.12403 -0.48172,-2.08748 -0.80288,-3.05094 3.85382,-4.49612 -6.26245,-15.897 -11.72203,-13.16721 -17.50276,8.67109 -48.49388,39.01991 -29.70652,59.73419 9.9557,11.07973 22.80176,6.42303 30.99113,-4.0144 8.83167,-11.2403 12.68549,-25.37097 11.2403,-39.50164 z m -18.78736,18.14506 c -1.92691,4.17497 -4.49612,8.02879 -7.70764,11.40089 -1.92691,2.24806 -3.85382,3.21151 -5.9413,4.97784 0.16057,-1.44518 0.32115,-2.89036 0.48172,-3.37209 0.64231,-1.92691 1.44518,-3.85382 2.40864,-5.62015 1.92691,-4.01439 4.17497,-7.70764 6.90476,-11.07973 2.40864,-2.89036 4.81727,-5.45958 7.54706,-7.86821 -0.6423,4.01439 -1.92691,7.86821 -3.69324,11.56145 z m 100.19929,-15.73642 c -7.54707,8.18936 -34.36322,22.48061 -54.59577,25.37097 -0.96345,-10.11627 6.58361,-25.2104 8.99224,-32.43631 4.81728,-14.61239 9.9557,-29.06421 15.09413,-43.51603 10.598,-29.38537 21.99888,-58.61017 34.20264,-87.35323 2.40864,-6.10188 -11.24031,-17.50276 -14.29125,-10.43743 -10.91915,26.33443 -21.51715,52.99001 -31.31227,79.96674 -4.81728,12.84607 -9.3134,25.8527 -13.80952,38.85934 -4.33555,12.52491 -9.47397,25.04983 -12.20376,37.89589 -1.92691,9.63455 -1.12403,18.94794 5.45958,26.65558 6.10188,7.38648 14.29124,5.9413 22.64118,3.37209 17.66334,-5.45958 35.64783,-17.18161 48.17274,-30.66997 4.65669,-5.13843 -3.69325,-12.84607 -8.34994,-7.70764 z"
       id="text2"
       aria-label="Cool" />
  </g>
</svg>
